<svg xmlns="http://www.w3.org/2000/svg" viewBox="0 0 128 128">
  <title>Uplora logo</title>
  <path fill="#3AA5E5" d="M18 26c0-12.15 9.85-22 22-22h28v80c0 10.49 8.51 19 19 19s19-8.51 19-19V16h-14v68c0 2.761-2.239 5-5 5s-5-2.239-5-5V4H40C24.536 4 12 16.536 12 32v56c0 30.928 25.072 56 56 56s56-25.072 56-56v-8h-14v8c0 23.196-18.804 42-42 42s-42-18.804-42-42Z"/>
  <path fill="#123E7B" d="M64 8h30c17.673 0 32 14.327 32 32S111.673 72 94 72H78v48H64zm14 14v36h16c9.941 0 18-8.059 18-18s-8.059-18-18-18zm8-18 22 22h-10v24H88V26H78z"/>
  <path fill="#123E7B" d="M110 4l3 9 9 3-9 3-3 9-3-9-9-3 9-3z"/>
</svg>
